<svg width="24" height="24" viewBox="0 0 24 24" fill="none" xmlns="http://www.w3.org/2000/svg">
<path fill-rule="evenodd" clip-rule="evenodd" d="M8.71393 16.8263C8.71709 17.7095 8.20076 18.5076 7.40604 18.8479C6.61132 19.1881 5.69499 19.0034 5.08493 18.38C4.47486 17.7566 4.29141 16.8175 4.62024 16.0011C4.94907 15.1848 5.7253 14.6523 6.58648 14.6523C7.14968 14.6512 7.69023 14.8797 8.0892 15.2874C8.48818 15.6951 8.7129 16.2486 8.71393 16.8263Z" stroke="white" stroke-width="1.5" stroke-linecap="round" stroke-linejoin="round"/>
<path fill-rule="evenodd" clip-rule="evenodd" d="M19.1632 16.8263C19.1663 17.7095 18.65 18.5076 17.8553 18.8479C17.0606 19.1881 16.1442 19.0034 15.5342 18.38C14.9241 17.7566 14.7407 16.8175 15.0695 16.0011C15.3983 15.1848 16.1745 14.6523 17.0357 14.6523C17.5989 14.6512 18.1395 14.8797 18.5384 15.2874C18.9374 15.6951 19.1621 16.2486 19.1632 16.8263Z" stroke="white" stroke-width="1.5" stroke-linecap="round" stroke-linejoin="round"/>
<path d="M2.42387 10.0219C2.2788 10.4221 2.48139 10.8656 2.87637 11.0126C3.27136 11.1595 3.70917 10.9543 3.85425 10.5542L2.42387 10.0219ZM3.89875 8.19274L3.18974 7.91019C3.18762 7.91564 3.18556 7.92112 3.18357 7.92663L3.89875 8.19274ZM9.72374 5.65799C10.1445 5.65799 10.4857 5.31242 10.4857 4.88614C10.4857 4.45986 10.1445 4.11429 9.72374 4.11429V5.65799ZM3.13907 11.0599C3.55985 11.0599 3.90097 10.7143 3.90097 10.2881C3.90097 9.86178 3.55985 9.51621 3.13907 9.51621V11.0599ZM1.84253 10.2881L1.83674 11.0599H1.84253V10.2881ZM0.761924 11.3944L2.03147e-05 11.3888V11.3944H0.761924ZM2.03147e-05 13.1192C2.03147e-05 13.5455 0.341136 13.8911 0.761924 13.8911C1.18271 13.8911 1.52383 13.5455 1.52383 13.1192H2.03147e-05ZM3.13907 9.51621C2.71827 9.51621 2.37716 9.86178 2.37716 10.2881C2.37716 10.7143 2.71827 11.0599 3.13907 11.0599V9.51621ZM9.72374 11.0599C10.1445 11.0599 10.4857 10.7143 10.4857 10.2881C10.4857 9.86178 10.1445 9.51621 9.72374 9.51621V11.0599ZM17.5732 10.5542C17.7183 10.9543 18.1561 11.1595 18.5511 11.0126C18.946 10.8656 19.1486 10.4221 19.0035 10.0219L17.5732 10.5542ZM17.5287 8.19274L18.2439 7.92663C18.2418 7.92112 18.2398 7.91564 18.2377 7.91019L17.5287 8.19274ZM9.72374 4.11429C9.30295 4.11429 8.96184 4.45986 8.96184 4.88614C8.96184 5.31242 9.30295 5.65799 9.72374 5.65799V4.11429ZM18.2884 11.0599C18.7091 11.0599 19.0503 10.7143 19.0503 10.2881C19.0503 9.86178 18.7091 9.51621 18.2884 9.51621V11.0599ZM9.72374 9.51621C9.30295 9.51621 8.96184 9.86178 8.96184 10.2881C8.96184 10.7143 9.30295 11.0599 9.72374 11.0599V9.51621ZM18.2884 9.51621C17.8676 9.51621 17.5265 9.86178 17.5265 10.2881C17.5265 10.7143 17.8676 11.0599 18.2884 11.0599V9.51621ZM21.4727 10.2881V11.0599H21.4778L21.4727 10.2881ZM22.5524 11.3944H23.3143V11.3888L22.5524 11.3944ZM21.7905 13.1192C21.7905 13.5455 22.1316 13.8911 22.5524 13.8911C22.9732 13.8911 23.3143 13.5455 23.3143 13.1192H21.7905ZM14.9168 17.8285C15.3376 17.8285 15.6787 17.4829 15.6787 17.0567C15.6787 16.6304 15.3376 16.2848 14.9168 16.2848V17.8285ZM8.62431 16.2848C8.20352 16.2848 7.86241 16.6304 7.86241 17.0567C7.86241 17.4829 8.20352 17.8285 8.62431 17.8285V16.2848ZM19.2392 16.2848C18.8184 16.2848 18.4773 16.6304 18.4773 17.0567C18.4773 17.4829 18.8184 17.8285 19.2392 17.8285V16.2848ZM21.4718 17.0567L21.4776 16.2848H21.4718V17.0567ZM22.5524 15.9504L23.3143 15.9559V15.9504H22.5524ZM23.3143 13.1192C23.3143 12.6929 22.9732 12.3474 22.5524 12.3474C22.1316 12.3474 21.7905 12.6929 21.7905 13.1192H23.3143ZM4.30188 17.8285C4.72267 17.8285 5.06379 17.4829 5.06379 17.0567C5.06379 16.6304 4.72267 16.2848 4.30188 16.2848V17.8285ZM1.84253 17.0567V16.2848H1.83674L1.84253 17.0567ZM0.761924 15.9504H0L3.96152e-05 15.9559L0.761924 15.9504ZM1.52383 13.1192C1.52383 12.6929 1.18271 12.3474 0.761924 12.3474C0.341136 12.3474 2.03147e-05 12.6929 2.03147e-05 13.1192H1.52383ZM10.4857 4.88614C10.4857 4.45986 10.1445 4.11429 9.72374 4.11429C9.30295 4.11429 8.96184 4.45986 8.96184 4.88614H10.4857ZM8.96184 10.2881C8.96184 10.7143 9.30295 11.0599 9.72374 11.0599C10.1445 11.0599 10.4857 10.7143 10.4857 10.2881H8.96184ZM0.761924 12.3474C0.341136 12.3474 2.03147e-05 12.6929 2.03147e-05 13.1192C2.03147e-05 13.5455 0.341136 13.8911 0.761924 13.8911V12.3474ZM2.73594 13.8911C3.15672 13.8911 3.49784 13.5455 3.49784 13.1192C3.49784 12.6929 3.15672 12.3474 2.73594 12.3474V13.8911ZM22.5524 13.8911C22.9732 13.8911 23.3143 13.5455 23.3143 13.1192C23.3143 12.6929 22.9732 12.3474 22.5524 12.3474V13.8911ZM20.4951 12.3474C20.0744 12.3474 19.7332 12.6929 19.7332 13.1192C19.7332 13.5455 20.0744 13.8911 20.4951 13.8911V12.3474ZM3.85425 10.5542L4.61394 8.45886L3.18357 7.92663L2.42387 10.0219L3.85425 10.5542ZM4.60777 8.4753C4.97841 7.52082 5.34991 6.8195 5.81412 6.35484C6.24591 5.92262 6.79497 5.65799 7.6368 5.65799V4.11429C6.41449 4.11429 5.47437 4.52477 4.74311 5.25676C4.04425 5.9563 3.5788 6.90828 3.18974 7.91019L4.60777 8.4753ZM7.6368 5.65799H9.72374V4.11429H7.6368V5.65799ZM3.13907 9.51621H1.84253V11.0599H3.13907V9.51621ZM1.84832 9.51623C1.35544 9.51243 0.885224 9.71247 0.540119 10.0658L1.62327 11.1516C1.68349 11.09 1.76063 11.0593 1.83674 11.0599L1.84832 9.51623ZM0.540119 10.0658C0.195661 10.4185 0.00351999 10.8947 2.03147e-05 11.3888L1.52381 11.3999C1.52449 11.3028 1.56242 11.2139 1.62327 11.1516L0.540119 10.0658ZM2.03147e-05 11.3944V13.1192H1.52383V11.3944H2.03147e-05ZM3.13907 11.0599H9.72374V9.51621H3.13907V11.0599ZM19.0035 10.0219L18.2439 7.92663L16.8135 8.45886L17.5732 10.5542L19.0035 10.0219ZM18.2377 7.91019C17.8486 6.90828 17.3832 5.9563 16.6843 5.25676C15.9531 4.52477 15.0129 4.11429 13.7906 4.11429V5.65799C14.6324 5.65799 15.1815 5.92262 15.6133 6.35484C16.0775 6.8195 16.449 7.52082 16.8196 8.4753L18.2377 7.91019ZM13.7906 4.11429H9.72374V5.65799H13.7906V4.11429ZM18.2884 9.51621H9.72374V11.0599H18.2884V9.51621ZM18.2884 11.0599H21.4727V9.51621H18.2884V11.0599ZM21.4778 11.0599C21.6312 11.0589 21.789 11.1924 21.7905 11.3999L23.3143 11.3888C23.307 10.3661 22.4984 9.50927 21.4676 9.51623L21.4778 11.0599ZM21.7905 11.3944V13.1192H23.3143V11.3944H21.7905ZM14.9168 16.2848H8.62431V17.8285H14.9168V16.2848ZM19.2392 17.8285H21.4718V16.2848H19.2392V17.8285ZM21.4659 17.8285C21.9588 17.8323 22.4291 17.6323 22.7741 17.279L21.691 16.1931C21.6308 16.2548 21.5537 16.2854 21.4776 16.2848L21.4659 17.8285ZM22.7741 17.279C23.1186 16.9263 23.3107 16.45 23.3143 15.9559L21.7905 15.9448C21.7898 16.0419 21.7519 16.1309 21.691 16.1931L22.7741 17.279ZM23.3143 15.9504V13.1192H21.7905V15.9504H23.3143ZM4.30188 16.2848H1.84253V17.8285H4.30188V16.2848ZM1.83674 16.2848C1.76063 16.2854 1.68349 16.2548 1.62327 16.1931L0.54012 17.279C0.885224 17.6323 1.35544 17.8323 1.84832 17.8285L1.83674 16.2848ZM1.62327 16.1931C1.56242 16.1309 1.52449 16.0419 1.52381 15.9448L3.96152e-05 15.9559C0.00353929 16.45 0.195661 16.9263 0.54012 17.279L1.62327 16.1931ZM1.52383 15.9504V13.1192H2.03147e-05L0 15.9504H1.52383ZM8.96184 4.88614V10.2881H10.4857V4.88614H8.96184ZM0.761924 13.8911H2.73594V12.3474H0.761924V13.8911ZM22.5524 12.3474H20.4951V13.8911H22.5524V12.3474Z" fill="white"/>
</svg>
