<svg width="24" height="24" viewBox="0 0 24 24" fill="none" xmlns="http://www.w3.org/2000/svg">
<path fill-rule="evenodd" clip-rule="evenodd" d="M3.8499 11.9999C3.8499 7.49878 7.49878 3.8499 11.9999 3.8499C12.8908 3.8499 13.7467 3.99254 14.547 4.25558C14.993 4.40216 15.4733 4.15946 15.6199 3.71349C15.7665 3.26752 15.5238 2.78716 15.0778 2.64058C14.1084 2.32193 13.0734 2.1499 11.9999 2.1499C6.5599 2.1499 2.1499 6.5599 2.1499 11.9999C2.1499 17.4399 6.5599 21.8499 11.9999 21.8499C17.4399 21.8499 21.8499 17.4399 21.8499 11.9999C21.8499 11.5305 21.4693 11.1499 20.9999 11.1499C20.5305 11.1499 20.1499 11.5305 20.1499 11.9999C20.1499 16.501 16.501 20.1499 11.9999 20.1499C7.49878 20.1499 3.8499 16.501 3.8499 11.9999ZM19.6022 7.59964C19.9335 7.26697 19.9323 6.72878 19.5996 6.39756C19.267 6.06633 18.7288 6.0675 18.3976 6.40017L12.0495 12.7758L9.62083 10.178C9.30024 9.83502 8.76236 9.81691 8.41943 10.1375C8.0765 10.4581 8.05839 10.996 8.37898 11.3389L11.4093 14.5804C11.5668 14.7489 11.7861 14.8462 12.0168 14.8498C12.2475 14.8534 12.4698 14.7631 12.6325 14.5996L19.6022 7.59964Z" fill="#A2EB29"/>
</svg>
