<svg width="20" height="21" viewBox="0 0 20 21" fill="none" xmlns="http://www.w3.org/2000/svg">
<path d="M12.5001 15.7018C12.6509 15.551 12.7433 15.3415 12.743 15.1114L12.743 15.0101C12.743 14.5493 12.3699 14.1763 11.9097 14.1769L7.3568 14.1769L15.0586 6.4751C15.3838 6.14983 15.3838 5.62186 15.0585 5.29659C14.7333 4.97132 14.2053 4.97132 13.88 5.29659L6.17828 12.9983V8.44542C6.17828 7.98462 5.80525 7.61159 5.34504 7.61218H5.24376C4.78296 7.61218 4.40993 7.98521 4.41052 8.44542V15.1114C4.41052 15.5722 4.78355 15.9452 5.24376 15.9446L11.9097 15.9446C12.1401 15.9446 12.3493 15.8526 12.5001 15.7018Z" fill="#FF3B30"/>
</svg>
