<svg width="40" height="40" viewBox="0 0 40 40" fill="none" xmlns="http://www.w3.org/2000/svg">
<path fill-rule="evenodd" clip-rule="evenodd" d="M12.0833 16.6666C12.0833 12.2943 15.6277 8.74992 20 8.74992C24.3722 8.74992 27.9166 12.2943 27.9166 16.6666C27.9166 21.0388 24.3722 24.5833 20 24.5833C15.6277 24.5833 12.0833 21.0388 12.0833 16.6666ZM20 11.2499C17.0084 11.2499 14.5833 13.675 14.5833 16.6666C14.5833 19.6581 17.0084 22.0833 20 22.0833C22.9915 22.0833 25.4166 19.6581 25.4166 16.6666C25.4166 13.675 22.9915 11.2499 20 11.2499Z" fill="#A3D139"/>
<path fill-rule="evenodd" clip-rule="evenodd" d="M5.8739 14.7613C6.46444 7.59699 12.4514 2.08325 19.64 2.08325H20.3599C27.5486 2.08325 33.5355 7.59699 34.126 14.7613C34.4433 18.6099 33.2545 22.4314 30.81 25.4209L22.8216 35.1905C21.3633 36.974 18.6367 36.974 17.1783 35.1905L9.1899 25.4209C6.74547 22.4314 5.55667 18.6099 5.8739 14.7613ZM19.64 4.58325C13.7524 4.58325 8.84911 9.09905 8.36545 14.9667C8.10143 18.1698 9.09083 21.3503 11.1253 23.8384L19.1137 33.608C19.5718 34.1682 20.4282 34.1682 20.8862 33.608L28.8747 23.8384C30.9091 21.3503 31.8985 18.1698 31.6345 14.9667C31.1508 9.09905 26.2475 4.58325 20.3599 4.58325H19.64Z" fill="#A3D139"/>
</svg>
