<svg width="130" height="49" viewBox="0 0 130 49" fill="none" xmlns="http://www.w3.org/2000/svg">
<rect width="6.82495" height="6.82495" transform="matrix(-0.744918 0.667156 -0.744918 -0.667156 130 4.55273)" fill="#111111"/>
<rect width="6.82495" height="6.82495" transform="matrix(-0.744918 0.667156 -0.744918 -0.667156 96.4473 4.55273)" fill="#111111"/>
<rect width="6.82495" height="6.82495" transform="matrix(-0.744918 0.667156 -0.744918 -0.667156 64.0918 4.55273)" fill="#111111"/>
<rect width="6.82495" height="6.82495" transform="matrix(-0.744918 0.667156 -0.744918 -0.667156 30.5391 4.55273)" fill="#111111"/>
<rect width="6.82495" height="6.82495" transform="matrix(-0.744918 0.667156 -0.744918 -0.667156 130 44.4463)" fill="#111111"/>
<rect width="6.82495" height="6.82495" transform="matrix(-0.744918 0.667156 -0.744918 -0.667156 96.4473 44.4463)" fill="#111111"/>
<rect width="6.82495" height="6.82495" transform="matrix(-0.744918 0.667156 -0.744918 -0.667156 64.0918 44.4463)" fill="#111111"/>
<rect width="6.82495" height="6.82495" transform="matrix(-0.744918 0.667156 -0.744918 -0.667156 30.5391 44.4463)" fill="#111111"/>
<rect width="6.82495" height="6.82495" transform="matrix(-0.744918 0.667156 -0.744918 -0.667156 109.629 24.0557)" fill="#111111"/>
<rect width="6.82495" height="6.82495" transform="matrix(-0.744918 0.667156 -0.744918 -0.667156 76.0762 24.0557)" fill="#111111"/>
<rect width="6.82495" height="6.82495" transform="matrix(-0.744918 0.667156 -0.744918 -0.667156 43.7207 24.0557)" fill="#111111"/>
<rect width="6.82495" height="6.82495" transform="matrix(-0.744918 0.667156 -0.744918 -0.667156 10.168 24.0557)" fill="#111111"/>
</svg>
