<svg width="62" height="101" viewBox="0 0 62 101" fill="none" xmlns="http://www.w3.org/2000/svg">
<rect width="6.98531" height="6.98531" transform="matrix(0.824776 0.565459 -0.824776 0.565459 5.76172 0)" fill="#111111"/>
<rect width="6.98531" height="6.98531" transform="matrix(0.824776 0.565459 -0.824776 0.565459 5.76172 26.0684)" fill="#111111"/>
<rect width="6.98531" height="6.98531" transform="matrix(0.824776 0.565459 -0.824776 0.565459 5.76172 51.2051)" fill="#111111"/>
<rect width="6.98531" height="6.98531" transform="matrix(0.824776 0.565459 -0.824776 0.565459 5.76172 77.2734)" fill="#111111"/>
<rect width="6.98531" height="6.98531" transform="matrix(0.824776 0.565459 -0.824776 0.565459 56.2402 0)" fill="#111111"/>
<rect width="6.98531" height="6.98531" transform="matrix(0.824776 0.565459 -0.824776 0.565459 56.2402 26.0684)" fill="#111111"/>
<rect width="6.98531" height="6.98531" transform="matrix(0.824776 0.565459 -0.824776 0.565459 56.2402 51.2051)" fill="#111111"/>
<rect width="6.98531" height="6.98531" transform="matrix(0.824776 0.565459 -0.824776 0.565459 56.2402 77.2734)" fill="#111111"/>
<rect width="6.98531" height="6.98531" transform="matrix(0.824776 0.565459 -0.824776 0.565459 30.4375 15.8271)" fill="#111111"/>
<rect width="6.98531" height="6.98531" transform="matrix(0.824776 0.565459 -0.824776 0.565459 30.4375 41.8955)" fill="#111111"/>
<rect width="6.98531" height="6.98531" transform="matrix(0.824776 0.565459 -0.824776 0.565459 30.4375 67.0322)" fill="#111111"/>
<rect width="6.98531" height="6.98531" transform="matrix(0.824776 0.565459 -0.824776 0.565459 30.4375 93.1006)" fill="#111111"/>
</svg>
