<svg width="24" height="25" viewBox="0 0 24 25" fill="none" xmlns="http://www.w3.org/2000/svg">
<path fill-rule="evenodd" clip-rule="evenodd" d="M8.71588 17.3263C8.71904 18.2095 8.20272 19.0076 7.408 19.3479C6.61328 19.6881 5.69695 19.5034 5.08689 18.88C4.47682 18.2566 4.29337 17.3175 4.6222 16.5011C4.95103 15.6848 5.72726 15.1523 6.58844 15.1523C7.15164 15.1512 7.69219 15.3797 8.09116 15.7874C8.49014 16.1951 8.71485 16.7486 8.71588 17.3263Z" stroke="#A2EB29" stroke-width="1.5" stroke-linecap="round" stroke-linejoin="round"/>
<path fill-rule="evenodd" clip-rule="evenodd" d="M19.1651 17.3263C19.1682 18.2095 18.6519 19.0076 17.8572 19.3479C17.0625 19.6881 16.1461 19.5034 15.5361 18.88C14.926 18.2566 14.7426 17.3175 15.0714 16.5011C15.4002 15.6848 16.1764 15.1523 17.0376 15.1523C17.6008 15.1512 18.1414 15.3797 18.5403 15.7874C18.9393 16.1951 19.164 16.7486 19.1651 17.3263Z" stroke="#A2EB29" stroke-width="1.5" stroke-linecap="round" stroke-linejoin="round"/>
<path d="M2.61257 10.4904C2.46976 10.8792 2.66919 11.3102 3.058 11.453C3.44682 11.5958 3.87779 11.3964 4.0206 11.0076L2.61257 10.4904ZM4.06441 8.713L3.36647 8.43844C3.36439 8.44374 3.36236 8.44907 3.3604 8.45442L4.06441 8.713ZM9.79839 6.25C10.2126 6.25 10.5484 5.91421 10.5484 5.5C10.5484 5.08579 10.2126 4.75 9.79839 4.75V6.25ZM3.31659 11.499C3.7308 11.499 4.06659 11.1632 4.06659 10.749C4.06659 10.3348 3.7308 9.999 3.31659 9.999V11.499ZM2.04031 10.749L2.03461 11.499H2.04031V10.749ZM0.976583 11.824L0.226582 11.8186V11.824H0.976583ZM0.226582 13.5C0.226582 13.9142 0.562369 14.25 0.976583 14.25C1.3908 14.25 1.72659 13.9142 1.72659 13.5H0.226582ZM3.31659 9.999C2.90237 9.999 2.56659 10.3348 2.56659 10.749C2.56659 11.1632 2.90237 11.499 3.31659 11.499V9.999ZM9.79839 11.499C10.2126 11.499 10.5484 11.1632 10.5484 10.749C10.5484 10.3348 10.2126 9.999 9.79839 9.999V11.499ZM17.5252 11.0076C17.668 11.3964 18.099 11.5958 18.4878 11.453C18.8766 11.3102 19.076 10.8792 18.9332 10.4904L17.5252 11.0076ZM17.4814 8.713L18.1854 8.45442C18.1834 8.44907 18.1814 8.44374 18.1793 8.43844L17.4814 8.713ZM9.79839 4.75C9.38417 4.75 9.04839 5.08579 9.04839 5.5C9.04839 5.91421 9.38417 6.25 9.79839 6.25V4.75ZM18.2292 11.499C18.6434 11.499 18.9792 11.1632 18.9792 10.749C18.9792 10.3348 18.6434 9.999 18.2292 9.999V11.499ZM9.79839 9.999C9.38417 9.999 9.04839 10.3348 9.04839 10.749C9.04839 11.1632 9.38417 11.499 9.79839 11.499V9.999ZM18.2292 9.999C17.815 9.999 17.4792 10.3348 17.4792 10.749C17.4792 11.1632 17.815 11.499 18.2292 11.499V9.999ZM21.3638 10.749V11.499H21.3688L21.3638 10.749ZM22.4266 11.824H23.1766V11.8186L22.4266 11.824ZM21.6766 13.5C21.6766 13.9142 22.0124 14.25 22.4266 14.25C22.8408 14.25 23.1766 13.9142 23.1766 13.5H21.6766ZM14.9103 18.076C15.3245 18.076 15.6603 17.7402 15.6603 17.326C15.6603 16.9118 15.3245 16.576 14.9103 16.576V18.076ZM8.71614 16.576C8.30192 16.576 7.96614 16.9118 7.96614 17.326C7.96614 17.7402 8.30192 18.076 8.71614 18.076V16.576ZM19.1652 16.576C18.751 16.576 18.4152 16.9118 18.4152 17.326C18.4152 17.7402 18.751 18.076 19.1652 18.076V16.576ZM21.3629 17.326L21.3686 16.576H21.3629V17.326ZM22.4266 16.251L23.1766 16.2564V16.251H22.4266ZM23.1766 13.5C23.1766 13.0858 22.8408 12.75 22.4266 12.75C22.0124 12.75 21.6766 13.0858 21.6766 13.5H23.1766ZM4.46124 18.076C4.87545 18.076 5.21124 17.7402 5.21124 17.326C5.21124 16.9118 4.87545 16.576 4.46124 16.576V18.076ZM2.04031 17.326V16.576H2.03461L2.04031 17.326ZM0.976583 16.251H0.226562L0.226601 16.2564L0.976583 16.251ZM1.72659 13.5C1.72659 13.0858 1.3908 12.75 0.976583 12.75C0.562369 12.75 0.226582 13.0858 0.226582 13.5H1.72659ZM10.5484 5.5C10.5484 5.08579 10.2126 4.75 9.79839 4.75C9.38417 4.75 9.04839 5.08579 9.04839 5.5H10.5484ZM9.04839 10.749C9.04839 11.1632 9.38417 11.499 9.79839 11.499C10.2126 11.499 10.5484 11.1632 10.5484 10.749H9.04839ZM0.976583 12.75C0.562369 12.75 0.226582 13.0858 0.226582 13.5C0.226582 13.9142 0.562369 14.25 0.976583 14.25V12.75ZM2.91976 14.25C3.33397 14.25 3.66976 13.9142 3.66976 13.5C3.66976 13.0858 3.33397 12.75 2.91976 12.75V14.25ZM22.4266 14.25C22.8408 14.25 23.1766 13.9142 23.1766 13.5C23.1766 13.0858 22.8408 12.75 22.4266 12.75V14.25ZM20.4015 12.75C19.9873 12.75 19.6515 13.0858 19.6515 13.5C19.6515 13.9142 19.9873 14.25 20.4015 14.25V12.75ZM4.0206 11.0076L4.76842 8.97158L3.3604 8.45442L2.61257 10.4904L4.0206 11.0076ZM4.76235 8.98756C5.1272 8.0601 5.49289 7.37863 5.94985 6.92712C6.3749 6.50714 6.91538 6.25 7.74406 6.25V4.75C6.54084 4.75 5.61541 5.14886 4.89557 5.86013C4.20763 6.53987 3.74945 7.4649 3.36647 8.43844L4.76235 8.98756ZM7.74406 6.25H9.79839V4.75H7.74406V6.25ZM3.31659 9.999H2.04031V11.499H3.31659V9.999ZM2.04601 9.99902C1.56083 9.99533 1.09796 10.1897 0.758244 10.533L1.82448 11.5881C1.88375 11.5282 1.95969 11.4984 2.03461 11.499L2.04601 9.99902ZM0.758244 10.533C0.419166 10.8757 0.230027 11.3385 0.226582 11.8186L1.72657 11.8294C1.72724 11.735 1.76458 11.6486 1.82448 11.5881L0.758244 10.533ZM0.226582 11.824V13.5H1.72659V11.824H0.226582ZM3.31659 11.499H9.79839V9.999H3.31659V11.499ZM18.9332 10.4904L18.1854 8.45442L16.7774 8.97158L17.5252 11.0076L18.9332 10.4904ZM18.1793 8.43844C17.7963 7.4649 17.3382 6.53987 16.6502 5.86013C15.9304 5.14886 15.0049 4.75 13.8017 4.75V6.25C14.6304 6.25 15.1709 6.50714 15.5959 6.92712C16.0529 7.37863 16.4186 8.0601 16.7834 8.98756L18.1793 8.43844ZM13.8017 4.75H9.79839V6.25H13.8017V4.75ZM18.2292 9.999H9.79839V11.499H18.2292V9.999ZM18.2292 11.499H21.3638V9.999H18.2292V11.499ZM21.3688 11.499C21.5198 11.498 21.6751 11.6277 21.6766 11.8294L23.1766 11.8186C23.1694 10.8248 22.3735 9.99226 21.3588 9.99902L21.3688 11.499ZM21.6766 11.824V13.5H23.1766V11.824H21.6766ZM14.9103 16.576H8.71614V18.076H14.9103V16.576ZM19.1652 18.076H21.3629V16.576H19.1652V18.076ZM21.3571 18.076C21.8423 18.0797 22.3052 17.8853 22.6449 17.542L21.5787 16.4869C21.5194 16.5468 21.4435 16.5766 21.3686 16.576L21.3571 18.076ZM22.6449 17.542C22.984 17.1993 23.1731 16.7365 23.1766 16.2564L21.6766 16.2456C21.6759 16.34 21.6386 16.4264 21.5787 16.4869L22.6449 17.542ZM23.1766 16.251V13.5H21.6766V16.251H23.1766ZM4.46124 16.576H2.04031V18.076H4.46124V16.576ZM2.03461 16.576C1.95969 16.5766 1.88375 16.5468 1.82448 16.4869L0.758245 17.542C1.09796 17.8853 1.56083 18.0797 2.04601 18.076L2.03461 16.576ZM1.82448 16.4869C1.76458 16.4264 1.72724 16.34 1.72657 16.2456L0.226601 16.2564C0.230046 16.7365 0.419167 17.1993 0.758245 17.542L1.82448 16.4869ZM1.72659 16.251V13.5H0.226582L0.226562 16.251H1.72659ZM9.04839 5.5V10.749H10.5484V5.5H9.04839ZM0.976583 14.25H2.91976V12.75H0.976583V14.25ZM22.4266 12.75H20.4015V14.25H22.4266V12.75Z" fill="#A2EB29"/>
</svg>
