<svg width="24" height="25" viewBox="0 0 24 25" fill="none" xmlns="http://www.w3.org/2000/svg">
<path fill-rule="evenodd" clip-rule="evenodd" d="M6.8499 8.4999C6.8499 6.76021 8.26021 5.3499 9.9999 5.3499C11.7396 5.3499 13.1499 6.76021 13.1499 8.4999C13.1499 10.2396 11.7396 11.6499 9.9999 11.6499C8.26021 11.6499 6.8499 10.2396 6.8499 8.4999ZM9.9999 3.6499C7.32132 3.6499 5.1499 5.82132 5.1499 8.4999C5.1499 11.1785 7.32132 13.3499 9.9999 13.3499C12.6785 13.3499 14.8499 11.1785 14.8499 8.4999C14.8499 5.82132 12.6785 3.6499 9.9999 3.6499ZM4.8499 18.4166C4.8499 18.0136 5.17855 17.4978 6.21827 17.0387C7.2078 16.6017 8.58414 16.3499 9.9999 16.3499C11.3956 16.3499 12.7708 16.643 13.7678 17.1046C14.2668 17.3356 14.6327 17.5911 14.8629 17.8377C15.0845 18.0752 15.1475 18.2655 15.1498 18.4084C15.1418 18.4299 15.105 18.498 14.9626 18.6087C14.7442 18.7785 14.3796 18.9615 13.8649 19.1269C12.8445 19.4548 11.4362 19.6499 9.9999 19.6499C8.3014 19.6499 6.90326 19.452 5.9612 19.1315C5.48754 18.9703 5.18096 18.7954 5.00759 18.6424C4.84883 18.5023 4.84976 18.4285 4.8499 18.4173L4.8499 18.4166ZM15.1518 18.4009C15.152 18.401 15.1518 18.4029 15.1505 18.4067C15.1509 18.4028 15.1516 18.4009 15.1518 18.4009ZM9.9999 14.6499C8.41567 14.6499 6.792 14.9269 5.53154 15.4836C4.32125 16.018 3.1499 16.9606 3.1499 18.4166C3.1499 19.0455 3.46745 19.5506 3.88284 19.9171C4.2876 20.2743 4.82476 20.5405 5.4136 20.7409C6.59654 21.1434 8.1984 21.3499 9.9999 21.3499C11.5636 21.3499 13.1553 21.1406 14.385 20.7454C14.9952 20.5493 15.5682 20.2912 16.0059 19.9509C16.4403 19.6133 16.8499 19.1033 16.8499 18.4166C16.8499 17.727 16.536 17.1388 16.1057 16.6777C15.6796 16.2212 15.108 15.8517 14.482 15.5619C13.229 14.9818 11.6042 14.6499 9.9999 14.6499ZM16.1538 12.4184C16.1989 11.9511 16.6142 11.6088 17.0814 11.6538C18.2956 11.7708 19.4221 12.0864 20.2733 12.5787C21.0977 13.0554 21.8499 13.8199 21.8499 14.8732C21.8499 15.4191 21.641 15.9169 21.2348 16.3125C20.8518 16.6854 20.3291 16.9348 19.7317 17.1042C19.2801 17.2322 18.8102 16.9699 18.6821 16.5182C18.5541 16.0666 18.8164 15.5967 19.2681 15.4686C19.7157 15.3417 19.9429 15.1977 20.0487 15.0946C20.1313 15.0142 20.1499 14.9535 20.1499 14.8732C20.1499 14.7165 20.0327 14.4033 19.4223 14.0503C18.8388 13.7129 17.9652 13.4469 16.9184 13.346C16.4511 13.301 16.1088 12.8856 16.1538 12.4184ZM17.9999 3.6499C17.5305 3.6499 17.1499 4.03046 17.1499 4.4999C17.1499 4.96934 17.5305 5.3499 17.9999 5.3499C18.9112 5.3499 19.6499 6.08863 19.6499 6.9999C19.6499 7.91117 18.9112 8.6499 17.9999 8.6499C17.5305 8.6499 17.1499 9.03046 17.1499 9.4999C17.1499 9.96934 17.5305 10.3499 17.9999 10.3499C19.8501 10.3499 21.3499 8.85006 21.3499 6.9999C21.3499 5.14975 19.8501 3.6499 17.9999 3.6499Z" fill="#A2EB29"/>
</svg>
