<svg width="24" height="25" viewBox="0 0 24 25" fill="none" xmlns="http://www.w3.org/2000/svg">
<g clip-path="url(#clip0_533_4488)">
<path d="M8.83962 10.745C8.79835 11.284 8.5324 11.843 8.14648 12.204C8.01495 12.327 7.95834 12.5169 8.00154 12.6969L8.19738 13.5139C8.24058 13.6929 8.374 13.8329 8.5468 13.8779L10.2662 14.3249C10.5033 14.3859 10.7241 14.5049 10.9228 14.6789C11.1263 14.8559 11.4287 14.8289 11.5996 14.6159C11.7686 14.4039 11.7417 14.0889 11.5391 13.9109C11.2281 13.6399 10.8787 13.4529 10.4994 13.3529L9.0585 12.9789L8.99802 12.7269C9.37147 12.2969 9.63738 11.7479 9.74682 11.1779C10.0031 11.0399 10.1903 10.7769 10.2278 10.4619L10.3315 9.59391C10.3631 9.33089 10.2854 9.06389 10.1174 8.86491C10.0656 8.80289 10.006 8.74889 9.94171 8.70389L9.96669 8.17289L10.054 8.08088C10.3017 7.80788 10.6367 7.22189 10.1068 6.37889C9.85531 5.97891 9.33786 5.49989 8.29818 5.49989C7.99195 5.49989 7.3017 5.49989 6.6316 5.93888C4.65592 6.01088 4.42359 7.11989 4.42359 7.95689C4.42359 8.12189 4.45239 8.43089 4.47925 8.68889C4.4082 8.73591 4.34389 8.79389 4.28629 8.86088C4.11543 9.06188 4.03668 9.32986 4.06935 9.59386L4.17303 10.4639C4.2124 10.7899 4.41112 11.0599 4.70389 11.1929C4.8114 11.7389 5.06295 12.2659 5.41332 12.6859L5.34325 12.9799L3.90231 13.3539C2.73591 13.6579 1.91992 14.7459 1.91992 15.9999C1.91992 16.2759 2.13498 16.4999 2.39994 16.4999H9.17464C9.4396 16.4999 9.65466 16.2759 9.65466 15.9999C9.65466 15.7239 9.43965 15.5 9.17469 15.5L2.95195 15.499C3.11611 14.928 3.55869 14.474 4.13658 14.324L5.85688 13.877C6.02874 13.832 6.16311 13.693 6.20631 13.513L6.41079 12.66C6.45304 12.485 6.40021 12.299 6.27255 12.175C5.89909 11.808 5.6524 11.273 5.61109 10.743C5.59093 10.483 5.37781 10.34 5.12725 10.34L5.00341 9.543C5.14165 9.543 5.2722 9.48099 5.36341 9.37402C5.45463 9.26503 5.49684 9.123 5.47956 8.98003C5.44306 8.67802 5.38452 8.13305 5.38452 7.95605C5.38452 7.43907 5.38452 6.95006 6.78802 6.93506C6.88594 6.93408 6.98193 6.90206 7.06257 6.84108C7.51963 6.49997 8.04573 6.49997 8.29818 6.49997C9.03546 6.49997 9.23611 6.81999 9.30618 6.92696C9.50107 7.23896 9.42138 7.32694 9.3676 7.38694L9.1593 7.60392C9.07483 7.69191 9.02488 7.80891 9.01912 7.93294L8.96728 9.02194C8.96152 9.15792 8.97687 9.25196 9.06714 9.35194C9.15642 9.45094 9.24952 9.46992 9.38011 9.47194L9.3177 10.284C9.06714 10.284 8.85978 10.484 8.83962 10.745Z" fill="#111111"/>
<path d="M13.9195 8.50003H16.7995C17.0644 8.50003 17.2795 8.27602 17.2795 8.00002C17.2795 7.72402 17.0644 7.5 16.7995 7.5H13.9195C13.6545 7.5 13.4395 7.72402 13.4395 8.00002C13.4395 8.27602 13.6545 8.50003 13.9195 8.50003Z" fill="#111111"/>
<path d="M20.64 0.5H2.39999C1.07618 0.5 0 1.62102 0 2.99998V16C0 17.379 1.07618 18.5 2.39999 18.5H9.50207C9.76797 18.5 9.98208 18.276 9.98208 18C9.98208 17.724 9.76702 17.5 9.50207 17.5H2.39999C1.60605 17.5 0.959985 16.827 0.959985 16V4.49998H22.08V14.31C22.08 14.586 22.295 14.81 22.56 14.81C22.8249 14.81 23.04 14.586 23.04 14.31V2.99998C23.04 1.62102 21.9638 0.5 20.64 0.5ZM22.08 3.5H0.959985V2.99998C0.959985 2.17297 1.60605 1.49998 2.39999 1.49998H20.64C21.4339 1.49998 22.08 2.17297 22.08 2.99998V3.5H22.08Z" fill="#111111"/>
<path d="M20.6403 8.50014C20.9052 8.50014 21.1203 8.27612 21.1203 8.00012C21.1203 7.72412 20.9052 7.50011 20.6403 7.50011H18.7202C18.4553 7.50011 18.2402 7.72412 18.2402 8.00012C18.2402 8.27612 18.4553 8.50014 18.7202 8.50014H20.6403Z" fill="#111111"/>
<path d="M23.0405 16.5C23.0405 16.082 22.742 15.79 22.3148 15.79C22.0738 15.79 21.661 15.919 21.3058 16.132C20.8364 15.1 20.0684 14.185 19.5183 13.9C19.1545 13.711 17.9151 13.5 16.8005 13.5C15.686 13.5 14.4466 13.711 14.0818 13.9C13.5337 14.185 12.7656 15.1 12.2953 16.132C11.9391 15.919 11.5263 15.79 11.2853 15.79C11.1029 15.79 10.9464 15.839 10.8207 15.938C10.6537 16.069 10.5605 16.269 10.5605 16.5C10.5605 17.28 11.1414 17.8209 11.2085 17.88C11.2604 17.9259 11.3199 17.955 11.3813 17.975C11.1519 18.638 11.0406 19.374 11.0406 20C11.0406 20.747 11.1068 22.021 11.5206 22.672V23.5C11.5206 24.061 11.942 24.5 12.4806 24.5H13.4405C13.9791 24.5 14.4005 24.061 14.4005 23.5V23.161C14.9804 23.312 15.8847 23.5 16.8005 23.5C17.7164 23.5 18.6207 23.312 19.2005 23.161V23.5C19.2005 24.061 19.6219 24.5 20.1605 24.5H21.1205C21.659 24.5 22.0805 24.061 22.0805 23.5V22.672C22.4942 22.021 22.5605 20.747 22.5605 20C22.5605 19.374 22.4491 18.638 22.2197 17.975C22.2811 17.956 22.3406 17.927 22.3925 17.88C22.4597 17.821 23.0405 17.28 23.0405 16.5ZM14.509 14.796C14.6885 14.71 15.7129 14.5 16.8006 14.5C17.8883 14.5 18.9125 14.71 19.0892 14.794C19.453 14.984 20.2979 15.981 20.6338 17.068C19.7315 17.2 17.5983 17.5 16.8006 17.5C16.0028 17.5 13.8687 17.2 12.9663 17.068C13.3023 15.981 14.1471 14.984 14.509 14.796ZM11.798 17.085C11.7672 17.053 11.7202 17.001 11.6645 16.916C11.7279 16.947 11.7884 16.982 11.845 17.017C11.8296 17.04 11.8133 17.061 11.798 17.085ZM13.4405 23.5H12.4806V23H13.4405V23.5ZM21.1205 23.5H20.1605V23H21.1205V23.5ZM21.3413 22H19.6805C19.6296 22 19.5788 22.009 19.5288 22.025C19.5154 22.03 18.1407 22.5 16.8005 22.5C15.4604 22.5 14.0856 22.03 14.0722 22.026C14.0559 22.021 14.0396 22.025 14.0233 22.022C13.9896 22.014 13.957 22 13.9205 22H12.2578C12.132 21.701 11.9996 21.012 11.9996 20.001C11.9996 19.842 12.0111 19.6731 12.0284 19.5021C12.6735 19.521 13.4405 19.7481 13.4405 20.0001C13.4405 20.2761 13.6556 20.5001 13.9205 20.5001C14.1855 20.5001 14.4005 20.276 14.4005 20C14.4005 18.778 12.8165 18.553 12.2165 18.511C12.2703 18.328 12.3346 18.156 12.4076 17.994C12.4085 17.994 12.4095 17.995 12.4105 17.995C12.5449 18.016 15.7138 18.5 16.8005 18.5C17.8872 18.5 21.0562 18.016 21.1906 17.995C21.1915 17.995 21.1915 17.994 21.1925 17.994C21.2655 18.156 21.3298 18.328 21.3835 18.511C20.7836 18.553 19.2005 18.779 19.2005 20C19.2005 20.276 19.4156 20.5 19.6805 20.5C19.9455 20.5 20.1605 20.276 20.1605 20C20.1605 19.743 20.9228 19.523 21.5717 19.502C21.589 19.673 21.6005 19.842 21.6005 20C21.6005 21.012 21.4671 21.701 21.3413 22ZM21.8021 17.084C21.7868 17.061 21.7714 17.039 21.7551 17.017C21.8118 16.982 21.8732 16.946 21.9356 16.915C21.8885 16.989 21.8405 17.044 21.8021 17.084Z" fill="#111111"/>
<path d="M13.9195 11.5H20.6395C20.9044 11.5 21.1195 11.276 21.1195 11C21.1195 10.724 20.9044 10.5 20.6395 10.5H13.9195C13.6545 10.5 13.4395 10.724 13.4395 11C13.4395 11.276 13.6545 11.5 13.9195 11.5Z" fill="#111111"/>
<path d="M17.7594 19.5H15.8394C15.5744 19.5 15.3594 19.724 15.3594 20C15.3594 20.276 15.5744 20.5 15.8394 20.5H17.7594C18.0244 20.5 18.2394 20.276 18.2394 20C18.2394 19.724 18.0244 19.5 17.7594 19.5Z" fill="#111111"/>
</g>
<defs>
<clipPath id="clip0_533_4488">
<rect width="24" height="24" fill="white" transform="translate(0 0.5)"/>
</clipPath>
</defs>
</svg>
