<svg width="39" height="40" viewBox="0 0 39 40" fill="none" xmlns="http://www.w3.org/2000/svg">
<path d="M16.3799 13.8167H16.5424" stroke="black" stroke-width="3" stroke-linecap="round" stroke-linejoin="round"/>
<path d="M34.125 8.33335V31.6667C34.125 32.1087 33.9538 32.5326 33.649 32.8452C33.3443 33.1578 32.931 33.3334 32.5 33.3334H6.5C6.06902 33.3334 5.6557 33.1578 5.35095 32.8452C5.0462 32.5326 4.875 32.1087 4.875 31.6667V8.33335C4.875 7.89133 5.0462 7.4674 5.35095 7.15484C5.6557 6.84228 6.06902 6.66669 6.5 6.66669H32.5C32.931 6.66669 33.3443 6.84228 33.649 7.15484C33.9538 7.4674 34.125 7.89133 34.125 8.33335ZM17.0788 24.6667L25.5288 33.3334H32.5C32.931 33.3334 33.3443 33.1578 33.649 32.8452C33.9538 32.5326 34.125 32.1087 34.125 31.6667V26.2167L24.8462 16.6667L17.0788 24.6667ZM4.875 27.85V31.6667C4.875 32.1087 5.0462 32.5326 5.35095 32.8452C5.6557 33.1578 6.06902 33.3334 6.5 33.3334H25.5288L12.5288 20L4.875 27.85Z" stroke="black" stroke-width="2" stroke-linecap="round" stroke-linejoin="round"/>
</svg>
