<svg width="24" height="24" viewBox="0 0 24 24" fill="none" xmlns="http://www.w3.org/2000/svg">
<path d="M12 14H7V10H12V8L16.61 11.18C16.742 11.2722 16.8499 11.3948 16.9243 11.5376C16.9988 11.6804 17.0376 11.839 17.0376 12C17.0376 12.161 16.9988 12.3196 16.9243 12.4624C16.8499 12.6052 16.742 12.7278 16.61 12.82L12 16V14ZM4 21H20C20.2652 21 20.5196 20.8946 20.7071 20.7071C20.8946 20.5196 21 20.2652 21 20V4C21 3.73478 20.8946 3.48043 20.7071 3.29289C20.5196 3.10536 20.2652 3 20 3H4C3.73478 3 3.48043 3.10536 3.29289 3.29289C3.10536 3.48043 3 3.73478 3 4V20C3 20.2652 3.10536 20.5196 3.29289 20.7071C3.48043 20.8946 3.73478 21 4 21Z" stroke="white" stroke-width="1.5" stroke-linecap="round" stroke-linejoin="round"/>
</svg>
