<svg width="24" height="24" viewBox="0 0 24 24" fill="none" xmlns="http://www.w3.org/2000/svg">
<path d="M18.7199 3.1875H15.8399C14.7795 3.1875 13.9199 4.04711 13.9199 5.1075V7.9875C13.9199 9.04789 14.7795 9.90749 15.8399 9.90749H18.7199C19.7803 9.90749 20.6399 9.04789 20.6399 7.9875V5.1075C20.6399 4.04711 19.7803 3.1875 18.7199 3.1875Z" stroke="white" stroke-width="2" stroke-linecap="round" stroke-linejoin="round"/>
<path d="M8.15938 3.1875H5.27938C4.21899 3.1875 3.35938 4.04711 3.35938 5.1075V7.9875C3.35938 9.04789 4.21899 9.90749 5.27938 9.90749H8.15938C9.21976 9.90749 10.0794 9.04789 10.0794 7.9875V5.1075C10.0794 4.04711 9.21976 3.1875 8.15938 3.1875Z" stroke="white" stroke-width="2" stroke-linecap="round" stroke-linejoin="round"/>
<path d="M18.7199 13.7471H15.8399C14.7795 13.7471 13.9199 14.6067 13.9199 15.6671V18.5471C13.9199 19.6075 14.7795 20.4671 15.8399 20.4671H18.7199C19.7803 20.4671 20.6399 19.6075 20.6399 18.5471V15.6671C20.6399 14.6067 19.7803 13.7471 18.7199 13.7471Z" stroke="white" stroke-width="2" stroke-linecap="round" stroke-linejoin="round"/>
<path d="M8.15938 13.7471H5.27938C4.21899 13.7471 3.35938 14.6067 3.35938 15.6671V18.5471C3.35938 19.6075 4.21899 20.4671 5.27938 20.4671H8.15938C9.21976 20.4671 10.0794 19.6075 10.0794 18.5471V15.6671C10.0794 14.6067 9.21976 13.7471 8.15938 13.7471Z" stroke="white" stroke-width="2" stroke-linecap="round" stroke-linejoin="round"/>
</svg>
