<svg width="24" height="25" viewBox="0 0 24 25" fill="none" xmlns="http://www.w3.org/2000/svg">
<path fill-rule="evenodd" clip-rule="evenodd" d="M11.9554 0.276611C15.9281 0.276611 20.3835 2.87341 20.8868 7.04581V9.22021C21.0589 10.0026 21.4588 10.7346 22.0347 11.3298C22.0696 11.367 22.1019 11.4042 22.1252 11.4474C22.6519 12.183 22.9547 13.0314 23 13.9074L22.9651 14.1282C23.0052 15.3282 22.5756 16.5042 21.7461 17.433C20.6953 18.4878 19.2551 19.149 17.7074 19.2846C13.8913 19.6686 10.0389 19.6686 6.22801 19.2846C4.70105 19.1394 3.28667 18.4782 2.25532 17.433C1.4155 16.5186 0.971642 15.3474 1.00141 14.1522V14.0022C1.0674 13.1022 1.39091 12.2298 1.94605 11.4798L2.03793 11.3718C2.61377 10.7718 3.00845 10.0458 3.18574 9.26221V7.08781L3.24526 6.96541C3.44325 6.65581 3.81723 6.47821 4.21061 6.51541C4.65058 6.56221 5.01033 6.87181 5.0802 7.27501V9.45061V9.56701C4.83822 10.659 4.29214 11.6718 3.49372 12.5022C3.18574 12.9558 3.01363 13.4718 2.98775 14.0022V14.2362C2.96316 14.9814 3.23103 15.7122 3.74605 16.2942C4.45907 16.9734 5.41406 17.391 6.43506 17.475C10.1256 17.8458 13.8525 17.8458 17.5456 17.475C18.5977 17.3862 19.5747 16.9506 20.2903 16.2426C20.7807 15.675 21.0344 14.967 21.0137 14.2458V14.0022C20.9878 13.467 20.8221 12.9522 20.518 12.4926C19.6899 11.667 19.1075 10.6542 18.8449 9.55741C18.8397 9.52021 18.8397 9.47821 18.8449 9.44101V7.25581C18.511 4.06861 15.0546 2.09101 12.046 2.09101C10.7675 2.09101 9.50839 2.39101 8.39681 2.96701L8.25965 3.03301C7.97755 3.13621 7.65921 3.11701 7.39135 2.97661C7.08208 2.80741 6.89056 2.49901 6.90091 2.17021C6.90997 1.83781 7.11313 1.53781 7.43146 1.38781C8.81091 0.665411 10.3676 0.286211 11.9554 0.276611ZM14.1256 21.8074C14.4841 21.5074 15.0353 21.4894 15.4196 21.7846C15.8389 22.1026 15.8997 22.6798 15.5503 23.0638C14.6911 24.0994 13.3634 24.709 11.9465 24.7234L11.6631 24.7138C10.3587 24.625 9.15134 24.0298 8.35292 23.0638L8.26622 22.9558C8.01906 22.5766 8.09929 22.075 8.48362 21.7846C8.90289 21.4606 9.53049 21.517 9.87859 21.9058C10.0313 22.0942 10.2125 22.2574 10.4195 22.3978C10.9656 22.7734 11.6527 22.933 12.3256 22.8394C13.0037 22.7458 13.6093 22.4122 14.0156 21.9058H14.0247L14.1256 21.8074Z" fill="#98A1B3"/>
<path d="M20.8868 7.04581H20.9573L20.9563 7.03743L20.8868 7.04581ZM20.8868 9.22021H20.8168V9.22782L20.8185 9.23525L20.8868 9.22021ZM22.0347 11.3298L22.0857 11.2819L22.085 11.2811L22.0347 11.3298ZM22.1252 11.4474L22.0631 11.4809L22.0683 11.4882L22.1252 11.4474ZM23 13.9074L23.0691 13.9184L23.0703 13.9111L23.0699 13.9038L23 13.9074ZM22.9651 14.1282L22.8946 14.1171L22.8951 14.1305L22.9651 14.1282ZM21.7461 17.433L21.7957 17.4825L21.7983 17.4796L21.7461 17.433ZM17.7074 19.2846L17.7013 19.2149L17.7004 19.215L17.7074 19.2846ZM6.22801 19.2846L6.23503 19.215L6.23464 19.2149L6.22801 19.2846ZM2.25532 17.433L2.20374 17.4804L2.2055 17.4822L2.25532 17.433ZM1.00141 14.1522L1.07141 14.154V14.1522H1.00141ZM1.00141 14.0022L0.931405 13.9971V14.0022H1.00141ZM1.94605 11.4798L1.89261 11.4343L1.88979 11.4382L1.94605 11.4798ZM2.03793 11.3718L1.98733 11.3233L1.98461 11.3265L2.03793 11.3718ZM3.18574 9.26221L3.25401 9.27766L3.25574 9.27003V9.26221H3.18574ZM3.18574 7.08781L3.12279 7.0572L3.11574 7.07169V7.08781H3.18574ZM3.24526 6.96541L3.18589 6.92744L3.18231 6.9348L3.24526 6.96541ZM4.21061 6.51541L4.21802 6.4458L4.2172 6.44572L4.21061 6.51541ZM5.0802 7.27501H5.15125L5.14918 7.26306L5.0802 7.27501ZM5.0802 9.56701L5.14855 9.58216L5.1502 9.57467V9.56701H5.0802ZM3.49372 12.5022L3.44252 12.453L3.4358 12.4629L3.49372 12.5022ZM2.98775 14.0022L2.91775 13.9988V14.0022H2.98775ZM2.98775 14.2362L3.05775 14.2385V14.2362H2.98775ZM3.74605 16.2942L3.69344 16.3408L3.69777 16.3449L3.74605 16.2942ZM6.43506 17.475L6.44206 17.4053L6.4408 17.4052L6.43506 17.475ZM17.5456 17.475L17.5398 17.4052L17.5387 17.4054L17.5456 17.475ZM20.2903 16.2426L20.3397 16.2925L20.3433 16.2884L20.2903 16.2426ZM21.0137 14.2458H20.9436L20.9437 14.2478L21.0137 14.2458ZM21.0137 14.0022H21.0837L21.0836 13.9988L21.0137 14.0022ZM20.518 12.4926L20.5764 12.454L20.5725 12.4481L20.5675 12.443L20.518 12.4926ZM18.8449 9.55741L18.7752 9.5671L18.7768 9.57372L18.8449 9.55741ZM18.8449 9.44101L18.9149 9.45075V9.44101H18.8449ZM18.8449 7.25581H18.9152L18.9145 7.24852L18.8449 7.25581ZM8.39681 2.96701L8.42718 3.03012L8.42902 3.02916L8.39681 2.96701ZM8.25965 3.03301L8.28381 3.09907L8.29 3.09609L8.25965 3.03301ZM7.39135 2.97661L7.35775 3.03803L7.35885 3.03861L7.39135 2.97661ZM6.90091 2.17021L6.97088 2.17241L6.97088 2.17212L6.90091 2.17021ZM7.43146 1.38781L7.46133 1.45119L7.46394 1.44982L7.43146 1.38781ZM14.1256 21.8074L14.0806 21.7535L14.0767 21.7572L14.1256 21.8074ZM15.4196 21.7846L15.377 21.8401L15.3773 21.8403L15.4196 21.7846ZM15.5503 23.0638L15.4985 23.0166L15.4965 23.0191L15.5503 23.0638ZM11.9465 24.7234L11.9441 24.7934L11.9472 24.7934L11.9465 24.7234ZM11.6631 24.7138L11.6583 24.7837L11.6607 24.7837L11.6631 24.7138ZM8.35292 23.0638L8.29833 23.1076L8.29897 23.1084L8.35292 23.0638ZM8.26622 22.9558L8.20729 22.9942L8.21164 22.9996L8.26622 22.9558ZM8.48362 21.7846L8.52582 21.8404L8.52642 21.84L8.48362 21.7846ZM9.87859 21.9058L9.93304 21.8616L9.93074 21.8591L9.87859 21.9058ZM10.4195 22.3978L10.4592 22.3401L10.4588 22.3398L10.4195 22.3978ZM12.3256 22.8394L12.316 22.77L12.316 22.77L12.3256 22.8394ZM14.0156 21.9058V21.8358H13.982L13.961 21.862L14.0156 21.9058ZM14.0247 21.9058V21.9758H14.0532L14.0735 21.9559L14.0247 21.9058ZM11.9554 0.276611V0.346611C13.9275 0.346611 16.0205 0.991473 17.682 2.15392C19.343 3.31605 20.5686 4.99212 20.8173 7.0542L20.8868 7.04581L20.9563 7.03743C20.7017 4.9271 19.4479 3.21857 17.7622 2.03921C16.077 0.860149 13.956 0.206611 11.9554 0.206611V0.276611ZM20.8868 7.04581H20.8168V9.22021H20.8868H20.9568V7.04581H20.8868ZM20.8868 9.22021L20.8185 9.23525C20.9935 10.0309 21.3999 10.7744 21.9843 11.3785L22.0347 11.3298L22.085 11.2811C21.5177 10.6948 21.1244 9.97434 20.9552 9.20517L20.8868 9.22021ZM22.0347 11.3298L21.9836 11.3777C22.018 11.4143 22.0449 11.446 22.0636 11.4806L22.1252 11.4474L22.1868 11.4142C22.159 11.3625 22.1212 11.3197 22.0857 11.2819L22.0347 11.3298ZM22.1252 11.4474L22.0683 11.4882C22.5875 12.2133 22.8855 13.0489 22.9301 13.911L23 13.9074L23.0699 13.9038C23.0239 13.0139 22.7163 12.1527 22.1821 11.4067L22.1252 11.4474ZM23 13.9074L22.9309 13.8965L22.8959 14.1173L22.9651 14.1282L23.0342 14.1392L23.0691 13.9184L23 13.9074ZM22.9651 14.1282L22.8951 14.1305C22.9346 15.3121 22.5117 16.4707 21.6939 17.3864L21.7461 17.433L21.7983 17.4796C22.6394 16.5378 23.0758 15.3443 23.035 14.1259L22.9651 14.1282ZM21.7461 17.433L21.6965 17.3836C20.6579 18.4262 19.2332 19.0807 17.7013 19.2149L17.7074 19.2846L17.7135 19.3543C19.2769 19.2174 20.7328 18.5494 21.7957 17.4824L21.7461 17.433ZM17.7074 19.2846L17.7004 19.215C13.8889 19.5985 10.0413 19.5985 6.23503 19.215L6.22801 19.2846L6.22099 19.3543C10.0366 19.7387 13.8936 19.7387 17.7144 19.3543L17.7074 19.2846ZM6.22801 19.2846L6.23464 19.2149C4.72334 19.0712 3.32447 18.4169 2.30515 17.3838L2.25532 17.433L2.2055 17.4822C3.24887 18.5396 4.67876 19.2076 6.22139 19.3543L6.22801 19.2846ZM2.25532 17.433L2.30688 17.3857C1.47896 16.4842 1.04209 15.3305 1.07138 14.154L1.00141 14.1522L0.931427 14.1505C0.901199 15.3643 1.35204 16.553 2.20377 17.4804L2.25532 17.433ZM1.00141 14.1522H1.07141V14.0022H1.00141H0.931405V14.1522H1.00141ZM1.00141 14.0022L1.07122 14.0073C1.13623 13.1208 1.45492 12.261 2.00231 11.5215L1.94605 11.4798L1.88979 11.4382C1.3269 12.1986 0.998574 13.0837 0.931593 13.9971L1.00141 14.0022ZM1.94605 11.4798L1.99937 11.5252L2.09124 11.4172L2.03793 11.3718L1.98461 11.3265L1.89273 11.4345L1.94605 11.4798ZM2.03793 11.3718L2.08843 11.4203C2.67279 10.8114 3.07382 10.0741 3.25401 9.27766L3.18574 9.26221L3.11746 9.24676C2.94308 10.0175 2.55476 10.7322 1.98742 11.3233L2.03793 11.3718ZM3.18574 9.26221H3.25574V7.08781H3.18574H3.11574V9.26221H3.18574ZM3.18574 7.08781L3.24869 7.11842L3.30821 6.99603L3.24526 6.96541L3.18231 6.9348L3.12279 7.0572L3.18574 7.08781ZM3.24526 6.96541L3.30423 7.00312C3.48718 6.71704 3.83504 6.55021 4.20402 6.5851L4.21061 6.51541L4.2172 6.44572C3.79941 6.40621 3.39932 6.59458 3.18629 6.9277L3.24526 6.96541ZM4.21061 6.51541L4.20321 6.58502C4.61646 6.62898 4.94741 6.91871 5.01123 7.28696L5.0802 7.27501L5.14918 7.26306C5.07324 6.82491 4.68471 6.49545 4.21802 6.4458L4.21061 6.51541ZM5.0802 7.27501H5.0102V9.45061H5.0802H5.1502V7.27501H5.0802ZM5.0802 9.45061H5.0102V9.56701H5.0802H5.1502V9.45061H5.0802ZM5.0802 9.56701L5.01186 9.55187C4.77273 10.631 4.23299 11.6323 3.44326 12.4537L3.49372 12.5022L3.54418 12.5507C4.35128 11.7113 4.90371 10.687 5.14855 9.58216L5.0802 9.56701ZM3.49372 12.5022L3.4358 12.4629C3.1207 12.927 2.94435 13.4554 2.91783 13.9988L2.98775 14.0022L3.05767 14.0056C3.08291 13.4882 3.25077 12.9846 3.55163 12.5415L3.49372 12.5022ZM2.98775 14.0022H2.91775V14.2362H2.98775H3.05775V14.0022H2.98775ZM2.98775 14.2362L2.91779 14.2339C2.89259 14.9977 3.16721 15.7457 3.69363 16.3406L3.74605 16.2942L3.79848 16.2478C3.29484 15.6787 3.03374 14.9652 3.05771 14.2385L2.98775 14.2362ZM3.74605 16.2942L3.69777 16.3449C4.42295 17.0357 5.3932 17.4595 6.42932 17.5448L6.43506 17.475L6.4408 17.4052C5.43493 17.3225 4.49518 16.9111 3.79433 16.2435L3.74605 16.2942ZM6.43506 17.475L6.42806 17.5447C10.1233 17.9159 13.8548 17.9159 17.5526 17.5447L17.5456 17.475L17.5387 17.4054C13.8501 17.7757 10.128 17.7757 6.44206 17.4054L6.43506 17.475ZM17.5456 17.475L17.5515 17.5448C18.6188 17.4547 19.6115 17.0126 20.3395 16.2924L20.2903 16.2426L20.2411 16.1928C19.5379 16.8886 18.5765 17.3177 17.5398 17.4053L17.5456 17.475ZM20.2903 16.2426L20.3433 16.2884C20.8448 15.7079 21.1048 14.983 21.0836 14.2438L21.0137 14.2458L20.9437 14.2478C20.9639 14.9511 20.7166 15.6421 20.2373 16.1968L20.2903 16.2426ZM21.0137 14.2458H21.0837V14.0022H21.0137H20.9437V14.2458H21.0137ZM21.0137 14.0022L21.0836 13.9988C21.0571 13.4511 20.8875 12.9241 20.5764 12.454L20.518 12.4926L20.4597 12.5312C20.7568 12.9803 20.9185 13.4829 20.9437 14.0056L21.0137 14.0022ZM20.518 12.4926L20.5675 12.443C19.7479 11.626 19.1724 10.6246 18.9129 9.54111L18.8449 9.55741L18.7768 9.57372C19.0427 10.6839 19.6318 11.708 20.4686 12.5422L20.518 12.4926ZM18.8449 9.55741L18.9142 9.54776C18.9099 9.51696 18.9099 9.48146 18.9142 9.45066L18.8449 9.44101L18.7755 9.43136C18.7695 9.47496 18.7695 9.52346 18.7755 9.56706L18.8449 9.55741ZM18.8449 9.44101H18.9149V7.25581H18.8449H18.7749V9.44101H18.8449ZM18.8449 7.25581L18.9145 7.24852C18.7449 5.62989 17.7826 4.32211 16.4885 3.42077C15.1947 2.51973 13.5645 2.02101 12.046 2.02101V2.09101V2.16101C13.5361 2.16101 15.1384 2.65109 16.4085 3.53565C17.6781 4.41991 18.6109 5.69453 18.7752 7.2631L18.8449 7.25581ZM12.046 2.09101V2.02101C10.7567 2.02101 9.48647 2.32353 8.36461 2.90486L8.39681 2.96701L8.42902 3.02916C9.53032 2.45849 10.7783 2.16101 12.046 2.16101V2.09101ZM8.39681 2.96701L8.36646 2.90393L8.2293 2.96993L8.25965 3.03301L8.29 3.09609L8.42717 3.03009L8.39681 2.96701ZM8.25965 3.03301L8.2356 2.96727C7.9718 3.06378 7.67402 3.04574 7.42385 2.91461L7.39135 2.97661L7.35885 3.03861C7.64441 3.18829 7.9833 3.20865 8.2837 3.09875L8.25965 3.03301ZM7.39135 2.97661L7.42495 2.9152C7.13589 2.75706 6.96145 2.47168 6.97088 2.17241L6.90091 2.17021L6.83095 2.16801C6.81966 2.52634 7.02826 2.85776 7.35775 3.03802L7.39135 2.97661ZM6.90091 2.17021L6.97088 2.17212C6.97917 1.86795 7.16517 1.59067 7.4613 1.45113L7.43146 1.38781L7.40163 1.32449C7.06109 1.48495 6.84076 1.80768 6.83094 2.1683L6.90091 2.17021ZM7.43146 1.38781L7.46394 1.44982C8.83316 0.732775 10.3788 0.356145 11.9558 0.34661L11.9554 0.276611L11.955 0.206613C10.3564 0.216278 8.78865 0.598048 7.39899 1.3258L7.43146 1.38781ZM14.1256 21.8074L14.1705 21.8611C14.5039 21.582 15.0188 21.565 15.377 21.8401L15.4196 21.7846L15.4623 21.7291C15.0518 21.4138 14.4642 21.4327 14.0807 21.7537L14.1256 21.8074ZM15.4196 21.7846L15.3773 21.8403C15.7651 22.1344 15.8193 22.6642 15.4986 23.0167L15.5503 23.0638L15.6021 23.1109C15.9802 22.6953 15.9128 22.0707 15.4619 21.7288L15.4196 21.7846ZM15.5503 23.0638L15.4965 23.0191C14.6512 24.0378 13.3435 24.6392 11.9457 24.6534L11.9465 24.7234L11.9472 24.7934C13.3834 24.7788 14.731 24.1609 15.6042 23.1085L15.5503 23.0638ZM11.9465 24.7234L11.9488 24.6534L11.6654 24.6438L11.6631 24.7138L11.6607 24.7837L11.9441 24.7933L11.9465 24.7234ZM11.6631 24.7138L11.6678 24.6439C10.3813 24.5563 9.19224 23.9694 8.40688 23.0192L8.35292 23.0638L8.29897 23.1084C9.11044 24.0902 10.3361 24.6936 11.6583 24.7836L11.6631 24.7138ZM8.35292 23.0638L8.40751 23.02L8.32081 22.912L8.26622 22.9558L8.21164 22.9996L8.29834 23.1076L8.35292 23.0638ZM8.26622 22.9558L8.32487 22.9175C8.098 22.5695 8.17052 22.1089 8.52582 21.8404L8.48362 21.7846L8.44142 21.7287C8.02806 22.0411 7.94013 22.5837 8.20758 22.994L8.26622 22.9558ZM8.48362 21.7846L8.52642 21.84C8.91703 21.5381 9.50314 21.5914 9.82644 21.9525L9.87859 21.9058L9.93074 21.8591C9.55785 21.4426 8.88874 21.383 8.44082 21.7292L8.48362 21.7846ZM9.87859 21.9058L9.82421 21.9498C9.98157 22.144 10.168 22.3118 10.3802 22.4557L10.4195 22.3978L10.4588 22.3398C10.257 22.203 10.081 22.0443 9.93297 21.8617L9.87859 21.9058ZM10.4195 22.3978L10.3798 22.4554C10.9407 22.8412 11.6455 23.0047 12.3353 22.9087L12.3256 22.8394L12.316 22.77C11.66 22.8613 10.9905 22.7055 10.4592 22.3401L10.4195 22.3978ZM12.3256 22.8394L12.3352 22.9087C13.0298 22.8128 13.652 22.4708 14.0702 21.9496L14.0156 21.9058L13.961 21.862C13.5666 22.3535 12.9776 22.6787 12.316 22.77L12.3256 22.8394ZM14.0156 21.9058V21.9758H14.0247V21.9058V21.8358H14.0156V21.9058ZM14.0247 21.9058L14.0735 21.9559L14.1745 21.8575L14.1256 21.8074L14.0767 21.7572L13.9758 21.8556L14.0247 21.9058Z" fill="#167F71"/>
</svg>
