<svg width="24" height="25" viewBox="0 0 24 25" fill="none" xmlns="http://www.w3.org/2000/svg">
<path d="M17 8.5C17 9.48891 16.7068 10.4556 16.1573 11.2779C15.6079 12.1001 14.827 12.741 13.9134 13.1194C12.9998 13.4978 11.9945 13.5969 11.0245 13.4039C10.0546 13.211 9.16373 12.7348 8.46447 12.0355C7.7652 11.3363 7.289 10.4454 7.09607 9.47545C6.90315 8.50555 7.00216 7.50021 7.3806 6.58658C7.75904 5.67295 8.3999 4.89206 9.22215 4.34265C10.0444 3.79324 11.0111 3.5 12 3.5C13.3261 3.5 14.5979 4.02678 15.5355 4.96447C16.4732 5.90215 17 7.17392 17 8.5ZM13 13.5H11C9.14348 13.5 7.36301 14.2375 6.05025 15.5503C4.7375 16.863 4 18.6435 4 20.5V20.5C4 20.7652 4.10536 21.0196 4.29289 21.2071C4.48043 21.3946 4.73478 21.5 5 21.5H19C19.2652 21.5 19.5196 21.3946 19.7071 21.2071C19.8946 21.0196 20 20.7652 20 20.5C20 18.6435 19.2625 16.863 17.9497 15.5503C16.637 14.2375 14.8565 13.5 13 13.5V13.5Z" stroke="white" stroke-width="2" stroke-linecap="round" stroke-linejoin="round"/>
</svg>
